<?xml version="1.0" standalone="no"?>
<!DOCTYPE svg PUBLIC "-//W3C//DTD SVG 20010904//EN"
 "http://www.w3.org/TR/2001/REC-SVG-20010904/DTD/svg10.dtd">
<svg version="1.0" xmlns="http://www.w3.org/2000/svg"
 width="300.000000pt" height="300.000000pt" viewBox="0 0 300.000000 300.000000"
 preserveAspectRatio="xMidYMid meet">
<metadata>
Created by potrace 1.14, written by Peter Selinger 2001-2017
</metadata>
<g transform="translate(0.000000,300.000000) scale(0.100000,-0.100000)"
fill="#000000" stroke="none">
<path d="M0 1500 l0 -1500 1500 0 1500 0 0 1500 0 1500 -1500 0 -1500 0 0
-1500z m1250 960 c0 -5 16 -10 35 -10 19 0 35 -4 35 -10 0 -5 11 -10 25 -10
16 0 25 -6 25 -15 0 -8 7 -15 15 -15 8 0 15 -7 15 -15 0 -8 9 -15 20 -15 11 0
20 -6 20 -12 0 -17 44 -68 59 -68 6 0 11 -16 11 -35 0 -19 5 -35 10 -35 6 0
10 -50 10 -130 0 -80 -4 -130 -10 -130 -5 0 -10 -16 -10 -35 0 -19 -5 -35 -10
-35 -14 0 -80 -66 -80 -80 0 -5 -4 -10 -10 -10 -5 0 -10 -7 -10 -15 0 -8 -7
-15 -15 -15 -8 0 -15 -4 -15 -10 0 -5 -11 -10 -25 -10 -18 0 -25 -5 -25 -20 0
-11 7 -20 15 -20 9 0 15 -9 15 -21 0 -21 22 -49 38 -49 6 0 12 -6 15 -12 2 -8
15 -1 34 20 17 17 40 32 52 32 12 0 21 5 21 11 0 14 25 39 39 39 6 0 11 5 11
10 0 6 7 10 16 10 8 0 12 5 9 10 -4 6 5 10 19 10 16 0 26 6 26 15 0 8 5 15 10
15 6 0 10 5 10 11 0 16 26 39 44 39 9 0 16 5 16 10 0 6 8 10 18 10 10 0 24 9
32 20 8 11 22 20 32 20 10 0 18 7 18 15 0 8 6 15 13 15 7 0 19 9 27 20 8 11
22 20 32 20 10 0 18 5 18 11 0 16 26 39 44 39 9 0 16 5 16 11 0 16 26 39 44
39 9 0 16 5 16 10 0 6 6 10 13 10 7 0 19 9 27 20 8 11 22 20 32 20 10 0 18 5
18 11 0 16 26 39 44 39 9 0 16 7 16 15 0 8 5 15 10 15 6 0 10 -5 10 -11 0 -16
-26 -39 -44 -39 -9 0 -16 -5 -16 -10 0 -17 -47 -60 -65 -60 -8 0 -15 -4 -15
-10 0 -5 -5 -10 -11 -10 -12 0 -39 -25 -39 -37 0 -5 -9 -15 -20 -23 -11 -8
-20 -20 -20 -27 0 -7 -7 -13 -15 -13 -18 0 -65 -43 -65 -60 0 -5 -9 -10 -20
-10 -11 0 -20 -4 -20 -10 0 -5 -5 -10 -10 -10 -14 0 -80 -66 -80 -80 0 -5 -9
-10 -20 -10 -11 0 -20 -5 -20 -10 0 -17 -47 -60 -65 -60 -8 0 -15 -4 -15 -10
0 -5 -7 -10 -15 -10 -8 0 -15 -5 -15 -10 0 -13 -45 -60 -57 -60 -5 0 -15 -9
-23 -20 -8 -11 -20 -20 -27 -20 -7 0 -13 -7 -13 -16 0 -19 -24 -44 -42 -44 -8
0 -20 -9 -28 -20 -8 -11 -19 -20 -25 -20 -6 0 -17 -9 -25 -20 -8 -11 -20 -20
-27 -20 -7 0 -13 -5 -13 -11 0 -11 -25 -39 -35 -39 -10 0 -35 -28 -35 -39 0
-6 -9 -11 -20 -11 -11 0 -20 5 -20 11 0 14 -25 39 -39 39 -6 0 -11 11 -11 25
0 14 -5 25 -11 25 -14 0 -39 26 -39 40 0 14 -25 40 -39 40 -6 0 -11 13 -11 28
0 16 -8 34 -20 42 -11 8 -20 20 -20 28 0 29 -28 42 -94 42 l-66 0 0 -160 c0
-136 -2 -160 -15 -160 -8 0 -15 -4 -15 -10 0 -6 -57 -10 -150 -10 l-150 0 0
565 0 565 360 0 c233 0 360 -4 360 -10z m1100 -945 c0 -104 -2 -125 -15 -125
-8 0 -15 -6 -15 -13 0 -7 -9 -19 -20 -27 -11 -8 -20 -20 -20 -27 0 -7 -5 -13
-10 -13 -16 0 -78 -66 -82 -86 -4 -25 -23 -44 -42 -44 -9 0 -16 -5 -16 -11 0
-6 -13 -24 -30 -39 -16 -15 -30 -31 -30 -35 0 -8 -27 -35 -35 -35 -12 0 -35
-29 -35 -44 0 -9 -4 -16 -10 -16 -5 0 -10 -7 -10 -15 0 -8 -4 -15 -10 -15 -5
0 -10 -7 -10 -15 0 -8 -7 -15 -15 -15 -15 0 -85 -62 -85 -75 0 -8 -27 -35 -35
-35 -12 0 -35 -29 -35 -44 0 -14 32 -16 280 -16 l280 0 0 -135 0 -135 -500 0
-500 0 0 131 c0 100 3 134 14 145 8 8 17 14 21 14 8 0 75 67 75 75 0 10 28 35
39 35 6 0 11 9 11 20 0 11 5 20 10 20 6 0 10 7 10 15 0 8 7 15 15 15 8 0 15 5
15 10 0 11 45 60 55 60 10 0 55 49 55 60 0 5 5 10 10 10 6 0 10 9 10 20 0 11
5 20 10 20 6 0 10 7 10 15 0 8 7 15 16 15 15 0 44 23 44 35 0 8 47 55 55 55
10 0 55 49 55 60 0 5 5 10 10 10 6 0 10 5 10 10 0 6 -75 10 -206 10 -165 0
-208 -3 -220 -14 -8 -8 -14 -17 -14 -21 0 -12 -29 -35 -44 -35 -9 0 -16 -4
-16 -10 0 -5 -6 -10 -13 -10 -7 0 -19 -9 -27 -20 -8 -11 -25 -20 -37 -20 -14
0 -23 -6 -23 -15 0 -8 -5 -15 -11 -15 -14 0 -39 -25 -39 -39 0 -6 -8 -11 -18
-11 -10 0 -24 -9 -32 -20 -8 -11 -20 -20 -27 -20 -7 0 -13 -7 -13 -15 0 -9 -9
-15 -23 -15 -12 0 -29 -9 -37 -20 -8 -11 -20 -20 -27 -20 -7 0 -13 -4 -13 -10
0 -5 -7 -10 -16 -10 -18 0 -44 -23 -44 -39 0 -6 -4 -11 -10 -11 -5 0 -10 -7
-10 -15 0 -9 -10 -15 -26 -15 -16 0 -37 -12 -54 -30 -15 -16 -37 -30 -49 -30
-12 0 -21 -5 -21 -10 0 -17 -47 -60 -65 -60 -8 0 -15 -4 -15 -10 0 -5 -7 -10
-16 -10 -20 0 -44 -24 -44 -44 0 -9 -8 -16 -20 -16 -11 0 -20 -4 -20 -10 0 -5
-6 -10 -14 -10 -8 0 -16 -6 -19 -12 -2 -7 -8 -10 -12 -6 -9 8 18 38 34 38 6 0
11 7 11 16 0 20 24 44 44 44 9 0 16 5 16 10 0 6 7 10 15 10 15 0 65 42 65 55
0 10 49 55 60 55 5 0 10 5 10 10 0 6 9 10 20 10 11 0 20 7 20 15 0 8 5 15 10
15 6 0 10 7 10 15 0 8 7 15 15 15 8 0 15 5 15 10 0 6 5 10 10 10 11 0 80 65
80 75 0 10 28 35 39 35 6 0 11 5 11 10 0 6 9 10 20 10 11 0 20 7 20 15 0 8 7
15 15 15 8 0 15 5 15 10 0 6 7 10 15 10 8 0 15 5 15 10 0 14 86 100 100 100 5
0 10 7 10 15 0 9 9 15 21 15 22 0 49 22 49 39 0 6 5 11 10 11 11 0 60 45 60
55 0 10 49 55 60 55 5 0 10 5 10 10 0 6 9 10 20 10 24 0 70 42 70 65 0 8 6 15
13 15 7 0 19 9 27 20 14 19 26 20 362 20 l348 0 0 -125z"/>
<path d="M860 2080 l0 -140 135 0 c83 0 135 4 135 10 0 6 12 10 26 10 31 0 54
21 54 49 0 12 5 21 10 21 6 0 10 16 10 35 0 19 -4 35 -10 35 -5 0 -10 9 -10
20 0 11 -4 20 -10 20 -5 0 -10 7 -10 15 0 8 -7 15 -15 15 -8 0 -15 5 -15 10 0
6 -22 10 -50 10 -38 0 -50 4 -50 15 0 12 -14 15 -69 15 -46 0 -71 -4 -74 -12
-4 -10 -6 -10 -6 0 -1 6 -12 12 -26 12 l-25 0 0 -140z"/>
</g>
</svg>
